<svg xmlns="http://www.w3.org/2000/svg" viewBox="0 0 100 100">
  <defs>
    <linearGradient id="cloudGradient" x1="0%" y1="0%" x2="100%" y2="100%">
      <stop offset="0%" style="stop-color:#2f81f7;stop-opacity:1" />
      <stop offset="100%" style="stop-color:#1f6feb;stop-opacity:1" />
    </linearGradient>
  </defs>
  <!-- Cloud shape -->
  <path d="M 70 40 C 70 30 62 22 52 22 C 48 22 44 24 41 27 C 38 20 31 15 23 15 C 12 15 3 24 3 35 C 3 37 3 39 4 41 C 2 43 0 46 0 50 C 0 57 6 63 13 63 L 67 63 C 77 63 85 55 85 45 C 85 37 79 30 70 28 Z"
        fill="url(#cloudGradient)" transform="translate(7, 15) scale(0.95)"/>
  <!-- Checkmark -->
  <path d="M 38 52 L 45 59 L 62 40"
        stroke="white"
        stroke-width="6"
        stroke-linecap="round"
        stroke-linejoin="round"
        fill="none"/>
</svg>
